<svg xmlns:xlink="http://www.w3.org/1999/xlink" width="1280" height="136" viewBox="0 0 1280 136" fill="none" xmlns="http://www.w3.org/2000/svg">
<path d="M0 135.156H33.621V40.4485L65.9765 135.156H89.5715L122.005 39.9391V135.156H155.713V0H104.562L77.8519 77.8598L51.5703 0H0V135.156Z" fill="white"/>
<path fill-rule="evenodd" clip-rule="evenodd" d="M168.601 135.156H205.172L212.16 114.512H261.035L268.111 135.156H304.847L254.63 0H218.819L168.601 135.156ZM223.121 82.7461L236.768 43.5653L250.162 82.7461H223.121Z" fill="white"/>
<path fill-rule="evenodd" clip-rule="evenodd" d="M308.225 135.156H347.316L373.013 91.3403H388.189V135.156H422.9V0H366.19C356.865 0 348.494 1.76953 341.086 5.30899C333.727 8.90352 327.858 14.0723 323.478 20.8121C319.146 27.5527 316.985 35.7266 316.985 45.3321C316.985 54.0387 319.068 61.7071 323.224 68.3352C327.381 74.9637 332.686 80.2164 339.149 84.0922L308.225 135.156ZM356.836 56.2883C353.867 53.6485 352.378 50.2496 352.378 46.0922C352.378 41.9922 353.867 38.7613 356.836 36.4027C359.873 34.0434 363.581 32.8637 367.962 32.8637H388.189V60.1633H368.127C363.64 60.1633 359.873 58.8719 356.836 56.2883Z" fill="white"/>
<path d="M523.003 0.00390625L482.053 52.7492L482.043 0.00390625H447.42V135.158H482.043V77.5258L524.512 135.158H566.816L514.233 63.2852L564.032 0.00390625H523.003Z" fill="white"/>
<path fill-rule="evenodd" clip-rule="evenodd" d="M621.5 135.156H658.071L665.147 114.511H714.021L721.01 135.156H757.834L707.529 0.00117188H671.718L621.5 135.156ZM676.02 82.7489L689.667 43.5699L703.071 82.7489H676.02Z" fill="white"/>
<path fill-rule="evenodd" clip-rule="evenodd" d="M770.643 135.156H805.277V91.5094H826.175C835.501 91.5094 843.891 89.7379 851.367 86.195C858.833 82.7102 864.731 77.5996 869.063 70.8641C873.443 64.1184 875.633 55.8637 875.633 46.091C875.633 36.143 873.443 27.7524 869.063 20.8996C864.731 14.0957 858.862 8.90274 851.455 5.30781C844.037 1.76875 835.608 0 826.175 0H770.643V135.156ZM824.998 60.0008H805.277V32.8625H824.998C829.378 32.8625 832.999 34.0406 835.861 36.4059C838.732 38.7613 840.163 41.993 840.163 46.091C840.163 50.4227 838.732 53.8199 835.861 56.2922C832.999 58.7649 829.378 60.0008 824.998 60.0008Z" fill="white"/>
<path d="M892.911 135.156H987.535V102.373H927.622V82.5739H985.422V50.9774H927.622V32.6973H987.535V0H892.911V135.156Z" fill="white"/>
<path d="M1096.23 0.00390625V50.2184H1042.64V0.00390625H1008.01V135.156H1042.64V83.1676H1096.23V135.156H1130.86V0.00390625H1096.23Z" fill="white"/>
<path fill-rule="evenodd" clip-rule="evenodd" d="M1143.75 135.156H1180.32L1187.31 114.511H1236.18L1243.26 135.156H1280L1229.78 0H1193.97L1143.75 135.156ZM1198.26 82.7489L1211.83 43.5602L1225.31 82.7489H1198.26Z" fill="white"/>
</svg>