<svg xmlns:xlink="http://www.w3.org/1999/xlink" width="144" height="36" viewBox="0 0 144 36" fill="none" xmlns="http://www.w3.org/2000/svg"><ellipse cx="16" cy="17.9998" rx="8.96774" ry="8.96774" fill="#E02424"></ellipse><path fill-rule="evenodd" clip-rule="evenodd" d="M16 34C24.8366 34 32 26.8366 32 18C32 9.16343 24.8366 2 16 2C7.16345 2 0 9.16343 0 18C0 26.8366 7.16345 34 16 34ZM16 29.4194C22.3067 29.4194 27.4194 24.3067 27.4194 18C27.4194 11.6933 22.3067 6.58065 16 6.58065C9.69327 6.58065 4.58065 11.6933 4.58065 18C4.58065 24.3067 9.69327 29.4194 16 29.4194Z" fill="#FFFFFF"></path><path d="M44 23.2794H46.6266V15.8804L49.1544 23.2794H50.9978L53.5316 15.8406V23.2794H56.1651V12.7204H52.1689L50.0822 18.8032L48.0289 12.7204H44V23.2794Z" fill="#FFFFFF"></path><path d="M57.172 23.2794H60.029L60.575 21.6666H64.3933L64.9462 23.2794H67.8162L63.8929 12.7204H61.0952L57.172 23.2794ZM61.4313 19.1849L62.4975 16.1239L63.5439 19.1849H61.4313Z" fill="#FFFFFF"></path><path d="M68.08 23.2794H71.134L73.1417 19.8563H74.3272V23.2794H77.039V12.7204H72.6086C71.8801 12.7204 71.2261 12.8586 70.6474 13.1351C70.0725 13.416 69.6139 13.8198 69.2717 14.3463C68.9333 14.8729 68.7645 15.5115 68.7645 16.2619C68.7645 16.9421 68.9272 17.5412 69.2519 18.0591C69.5766 18.5769 69.9911 18.9873 70.496 19.2901L68.08 23.2794ZM71.8778 17.1179C71.6458 16.9117 71.5295 16.6461 71.5295 16.3213C71.5295 16.001 71.6458 15.7486 71.8778 15.5643C72.1151 15.38 72.4048 15.2878 72.747 15.2878H74.3272V17.4206H72.7599C72.4093 17.4206 72.1151 17.3197 71.8778 17.1179Z" fill="#FFFFFF"></path><path d="M84.8596 12.7207L81.6604 16.8414L81.6596 12.7207H78.9547V23.2796H81.6596V18.7771L84.9775 23.2796H88.2825L84.1745 17.6645L88.065 12.7207H84.8596Z" fill="#FFFFFF"></path><path d="M92.5547 23.2795H95.4118L95.9646 21.6665H99.7829L100.329 23.2795H103.206L99.2757 12.7205H96.4779L92.5547 23.2795ZM96.8141 19.1851L97.8802 16.1243L98.9274 19.1851H96.8141Z" fill="#FFFFFF"></path><path d="M104.207 23.2795H106.912V19.8695H108.545C109.273 19.8695 109.929 19.7311 110.513 19.4543C111.096 19.1821 111.557 18.7828 111.896 18.2566C112.238 17.7296 112.409 17.0847 112.409 16.3212C112.409 15.544 112.238 14.8885 111.896 14.3532C111.557 13.8216 111.099 13.4159 110.52 13.135C109.94 12.8586 109.282 12.7204 108.545 12.7204H104.207V23.2795ZM108.453 17.4079H106.912V15.2878H108.453C108.795 15.2878 109.078 15.3798 109.302 15.5646C109.526 15.7486 109.638 16.0011 109.638 16.3212C109.638 16.6596 109.526 16.9251 109.302 17.1182C109.078 17.3114 108.795 17.4079 108.453 17.4079Z" fill="#FFFFFF"></path><path d="M113.759 23.2795H121.151V20.7182H116.471V19.1715H120.986V16.703H116.471V15.2748H121.151V12.7204H113.759V23.2795Z" fill="#FFFFFF"></path><path d="M129.643 12.7207V16.6437H125.456V12.7207H122.75V23.2795H125.456V19.2178H129.643V23.2795H132.348V12.7207H129.643Z" fill="#FFFFFF"></path><path d="M133.356 23.2795H136.213L136.759 21.6665H140.576L141.13 23.2795H144L140.077 12.7204H137.279L133.356 23.2795ZM137.614 19.1851L138.674 16.1235L139.728 19.1851H137.614Z" fill="#FFFFFF"></path></svg>